<svg width="16" height="16" viewBox="0 0 16 16" fill="none" xmlns="http://www.w3.org/2000/svg">
<path d="M12.333 8.66699C12.7011 8.66699 12.9998 8.96497 13 9.33301V11H14.667C15.035 11.0002 15.333 11.2989 15.333 11.667C15.3328 12.0349 15.0349 12.3328 14.667 12.333H13V14C13 14.3682 12.7012 14.667 12.333 14.667C11.965 14.6668 11.667 14.3681 11.667 14V12.333H10C9.63192 12.333 9.33318 12.035 9.33301 11.667C9.33301 11.2988 9.63181 11 10 11H11.667V9.33301C11.6672 8.96508 11.9651 8.66717 12.333 8.66699ZM7.33301 8.83301C8.57388 8.83301 9.71278 9.27092 10.6035 10H10C9.07953 10 8.33301 10.7465 8.33301 11.667C8.33318 12.5873 9.07963 13.333 10 13.333H10.667V14C10.667 14.1742 10.6936 14.3422 10.7432 14.5H1.33301C1.05702 14.4998 0.833008 14.276 0.833008 14C0.833008 11.1465 3.14653 8.83301 6 8.83301H7.33301ZM6.66699 1.5C8.41574 1.50018 9.83301 2.9182 9.83301 4.66699C9.83283 6.41564 8.41564 7.83283 6.66699 7.83301C4.9182 7.83301 3.50018 6.41574 3.5 4.66699C3.5 2.91809 4.91809 1.5 6.66699 1.5Z" fill="white"/>
</svg>
