<svg width="16" height="16" viewBox="0 0 16 16" fill="none" xmlns="http://www.w3.org/2000/svg">
<path d="M11.583 8.66699C11.9511 8.66699 12.2498 8.96497 12.25 9.33301V11.333H14.25C14.6182 11.333 14.917 11.6318 14.917 12C14.917 12.3682 14.6182 12.667 14.25 12.667H12.25V14.667C12.2498 15.035 11.9511 15.333 11.583 15.333C11.2151 15.3328 10.9172 15.0349 10.917 14.667V12.667H8.91699C8.5488 12.667 8.25 12.3682 8.25 12C8.25 11.6318 8.5488 11.333 8.91699 11.333H10.917V9.33301C10.9172 8.96508 11.2151 8.66717 11.583 8.66699ZM10.583 0.666992C10.9511 0.666992 11.2498 0.964968 11.25 1.33301V1.65527C11.7753 1.76669 12.2207 1.96383 12.5869 2.33008C13.0369 2.78015 13.2343 3.34928 13.3271 4.04004C13.417 4.70871 13.417 5.56167 13.417 6.62988V9.16699C13.4168 9.25889 13.3419 9.33301 13.25 9.33301C13.2498 8.41268 12.5034 7.66699 11.583 7.66699C10.6628 7.66717 9.91717 8.41279 9.91699 9.33301V9.93359C9.91699 10.1216 9.91663 10.2158 9.8584 10.2744C9.79982 10.333 9.70516 10.333 9.5166 10.333H8.91699C7.99652 10.333 7.25 11.0795 7.25 12C7.25 12.9205 7.99652 13.667 8.91699 13.667H9.5166C9.70516 13.667 9.79982 13.667 9.8584 13.7256C9.91663 13.7842 9.91699 13.8784 9.91699 14.0664V14.667C9.917 14.7206 9.91887 14.7739 9.92383 14.8262C9.93499 14.9439 9.94091 15.0028 9.90625 15.0596C9.89563 15.0769 9.87538 15.0997 9.85938 15.1123C9.80701 15.1536 9.7641 15.1552 9.67871 15.1572C9.26213 15.1671 8.79939 15.167 8.28711 15.167H6.21289C5.1445 15.167 4.29177 15.1671 3.62305 15.0771C2.9322 14.9843 2.36318 14.787 1.91309 14.3369C1.46299 13.8868 1.26573 13.3178 1.17285 12.627C1.08295 11.9582 1.083 11.1055 1.08301 10.0371L1.08301 6.62988C1.083 5.56168 1.08299 4.70871 1.17285 4.04004C1.26572 3.34928 1.46311 2.78015 1.91309 2.33008C2.27933 1.96383 2.7247 1.76669 3.25 1.65527L3.25 1.33301C3.25018 0.964968 3.54891 0.666992 3.91699 0.666992C4.28492 0.667168 4.58283 0.965076 4.58301 1.33301V1.51855C5.0595 1.50166 5.60077 1.49999 6.21289 1.5H6.58301V1.33301C6.58318 0.964968 6.88192 0.666993 7.25 0.666992C7.61808 0.666992 7.91682 0.964967 7.91699 1.33301V1.5H8.28711C8.89923 1.49999 9.4405 1.50166 9.91699 1.51855V1.33301C9.91717 0.965077 10.2151 0.667169 10.583 0.666992ZM4.58301 8.83301C4.30712 8.83318 4.08318 9.05712 4.08301 9.33301C4.08301 9.60904 4.30702 9.83283 4.58301 9.83301L7.25 9.83301C7.52614 9.83301 7.75 9.60915 7.75 9.33301C7.74982 9.05702 7.52603 8.83301 7.25 8.83301L4.58301 8.83301ZM4.58301 5.5C4.30702 5.50018 4.08301 5.72397 4.08301 6C4.08301 6.27603 4.30702 6.49982 4.58301 6.5L9.91699 6.5C10.193 6.49983 10.417 6.27603 10.417 6C10.417 5.72397 10.193 5.50017 9.91699 5.5L4.58301 5.5Z" fill="white"/>
</svg>
