<svg width="16" height="16" viewBox="0 0 16 16" fill="none" xmlns="http://www.w3.org/2000/svg">
<path d="M11.333 0.75C11.7012 0.75 12 1.0488 12 1.41699V1.73828C12.5253 1.8497 12.9707 2.04684 13.3369 2.41309C13.787 2.86318 13.9843 3.4322 14.0771 4.12305C14.1671 4.79177 14.167 5.6445 14.167 6.71289V10.1201C14.167 11.1883 14.167 12.0413 14.0771 12.71C13.9843 13.4007 13.7869 13.9699 13.3369 14.4199C12.8868 14.87 12.3178 15.0673 11.627 15.1602C10.9582 15.2501 10.1055 15.25 9.03711 15.25H6.96289C5.89449 15.25 5.04177 15.2501 4.37305 15.1602C3.68221 15.0673 3.11317 14.87 2.66309 14.4199C2.21311 13.9699 2.01572 13.4007 1.92285 12.71C1.83299 12.0413 1.833 11.1883 1.83301 10.1201V6.71289C1.833 5.64451 1.83295 4.79177 1.92285 4.12305C2.01573 3.4322 2.21299 2.86318 2.66309 2.41309C3.02934 2.04684 3.4747 1.8497 4 1.73828V1.41699C4 1.0488 4.2988 0.75 4.66699 0.75C5.03503 0.750176 5.33301 1.04891 5.33301 1.41699V1.60156C5.8095 1.58467 6.35077 1.583 6.96289 1.58301H7.33301V1.41699C7.33301 1.0488 7.63181 0.75 8 0.75C8.36819 0.75 8.66699 1.0488 8.66699 1.41699V1.58301H9.03711C9.64923 1.583 10.1905 1.58467 10.667 1.60156V1.41699C10.667 1.04891 10.965 0.750176 11.333 0.75ZM5.33301 9.41699C4.96508 9.41717 4.66717 9.71508 4.66699 10.083C4.66699 10.4511 4.96497 10.7498 5.33301 10.75H8C8.36819 10.75 8.66699 10.4512 8.66699 10.083C8.66682 9.71497 8.36808 9.41699 8 9.41699H5.33301ZM5.33301 6.08301C4.96497 6.08318 4.66699 6.38192 4.66699 6.75C4.66699 7.11808 4.96497 7.41682 5.33301 7.41699H10.667C11.035 7.41682 11.333 7.11808 11.333 6.75C11.333 6.38192 11.035 6.08318 10.667 6.08301H5.33301Z" fill="currentColor"/>
</svg>
