<svg width="22" height="22" viewBox="0 0 22 22" fill="none" xmlns="http://www.w3.org/2000/svg">
<path d="M1.10077 15.4866C1.20526 15.649 1.32879 15.8025 1.47089 15.9446L6.05682 20.5305C6.19893 20.6726 6.35245 20.7961 6.51483 20.9006L6.41522 21.0002C5.63419 21.7813 4.36815 21.7813 3.5871 21.0002L3.00116 20.4143L2.20819 21.2073C1.81767 21.5978 1.18465 21.5978 0.794128 21.2073C0.403605 20.8167 0.403605 20.1837 0.794128 19.7932L1.5871 19.0002L1.00116 18.4143C0.220219 17.6332 0.220149 16.3672 1.00116 15.5862L1.10077 15.4866ZM12.7639 2.177C13.4473 1.49366 14.5551 1.49361 15.2385 2.177L19.8244 6.76294C20.5076 7.44635 20.5077 8.5542 19.8244 9.23755L18.7385 10.3235C18.0551 11.0068 16.9473 11.0067 16.2639 10.3235L14.6779 8.73755L8.73846 14.677L10.3244 16.2629C11.0076 16.9464 11.0077 18.0542 10.3244 18.7375L9.23846 19.8235C8.55511 20.5068 7.44727 20.5067 6.76385 19.8235L2.17792 15.2375C1.49452 14.5542 1.49458 13.4464 2.17792 12.7629L3.26385 11.677C3.94728 10.9937 5.05507 10.9936 5.73846 11.677L7.3244 13.2629L13.2639 7.32349L11.6779 5.73755C10.9945 5.05416 10.9946 3.94636 11.6779 3.26294L12.7639 2.177ZM15.5851 1.00024C16.3661 0.219239 17.6322 0.219331 18.4133 1.00024L19.0002 1.58716L19.7941 0.793213C20.1847 0.402689 20.8177 0.402689 21.2082 0.793213C21.5987 1.18374 21.5987 1.81675 21.2082 2.20728L20.4142 3.00122L20.9992 3.58618C21.7802 4.36723 21.7802 5.63326 20.9992 6.41431L20.8996 6.51392C20.7951 6.35154 20.6716 6.19801 20.5295 6.05591L15.9435 1.46997C15.8014 1.32788 15.6479 1.20434 15.4855 1.09985L15.5851 1.00024Z" fill="currentColor"/>
</svg>
