<svg width="16" height="16" viewBox="0 0 16 16" fill="none" xmlns="http://www.w3.org/2000/svg">
<path d="M8 0.833008C11.958 0.833008 15.167 4.04196 15.167 8C15.167 11.958 11.958 15.167 8 15.167C4.04196 15.167 0.833008 11.958 0.833008 8C0.833008 4.04196 4.04196 0.833008 8 0.833008ZM7.35352 5.97949C7.15829 5.78444 6.8417 5.78445 6.64648 5.97949L4.97949 7.64648C4.88581 7.74019 4.83307 7.8675 4.83301 8C4.83302 8.13246 4.88591 8.25978 4.97949 8.35352L6.64648 10.0205C6.84171 10.2156 7.1583 10.2156 7.35352 10.0205C7.5487 9.82529 7.5486 9.50874 7.35352 9.31348L6.54004 8.5H10.667C10.943 8.49982 11.167 8.27603 11.167 8C11.167 7.72397 10.943 7.50018 10.667 7.5H6.54102L7.35352 6.68652C7.54863 6.49124 7.54875 6.17469 7.35352 5.97949Z" fill="currentColor"/>
</svg>
