<svg width="14" height="15" viewBox="0 0 14 15" fill="none" xmlns="http://www.w3.org/2000/svg">
<path d="M7.89355 0C8.42687 5.75363e-05 8.90906 0.318393 9.11914 0.808594L9.77246 2.33301H12.666C13.0342 2.33301 13.333 2.63181 13.333 3C13.333 3.36819 13.0342 3.66699 12.666 3.66699H12.1182L11.5762 12.6104C11.5175 13.5778 10.7153 14.3328 9.74609 14.333H3.58887C2.61968 14.3328 1.81848 13.5778 1.75977 12.6104L1.21777 3.66699H0.666016C0.297975 3.66682 9.6656e-08 3.36808 0 3C0 2.63192 0.297975 2.33318 0.666016 2.33301H3.56055L4.21387 0.808594C4.42397 0.318349 4.90608 0 5.43945 0H7.89355ZM5.66895 8.99902C5.39312 8.99926 5.16912 9.22318 5.16895 9.49902C5.16895 9.77502 5.39301 9.99878 5.66895 9.99902H7.66895C7.94489 9.99879 8.16895 9.77502 8.16895 9.49902C8.16877 9.22318 7.94478 8.99926 7.66895 8.99902H5.66895ZM4.66895 6.33301C4.39301 6.33325 4.16895 6.55701 4.16895 6.83301C4.16912 7.10885 4.39312 7.33277 4.66895 7.33301H8.66895C8.94478 7.33277 9.16877 7.10885 9.16895 6.83301C9.16895 6.55701 8.94489 6.33324 8.66895 6.33301H4.66895ZM5.52734 1.33301C5.47401 1.33301 5.42531 1.36504 5.4043 1.41406L5.01074 2.33301H8.32227L7.92773 1.41406C7.9067 1.36519 7.85887 1.33307 7.80566 1.33301H5.52734Z" fill="#FF0000"/>
</svg>
