<svg width="12" height="16" viewBox="0 0 12 16" fill="none" xmlns="http://www.w3.org/2000/svg">
<path d="M11.333 0.666992C11.7011 0.666992 11.9998 0.964968 12 1.33301C12 1.65514 11.7715 1.92412 11.4678 1.98633L11.333 2V3.55566C11.333 5.54625 10.1549 7.24535 8.45312 8.0918C10.0628 8.92395 11.167 10.5515 11.167 12.4443V14H11.333C11.7012 14 12 14.2988 12 14.667C11.9998 15.035 11.7011 15.333 11.333 15.333H0.666992C0.298911 15.333 0.000176302 15.035 0 14.667C0 14.2988 0.298802 14 0.666992 14H0.833008V12.4443C0.83305 10.5518 1.93666 8.92407 3.5459 8.0918C1.84455 7.24522 0.667035 5.54594 0.666992 3.55566V2L0.532227 1.98633C0.22849 1.92412 0 1.65514 0 1.33301C0.000175852 0.964968 0.298911 0.666992 0.666992 0.666992H11.333ZM2 2V3.55566C2.00006 5.61175 3.75988 7.33301 6 7.33301C8.24012 7.33301 9.99994 5.61175 10 3.55566V2H2Z" fill="currentColor"/>
</svg>
