<svg width="16" height="12" viewBox="0 0 16 12" fill="none" xmlns="http://www.w3.org/2000/svg">
<path d="M13.333 0.166992C14.3455 0.166992 15.167 0.987478 15.167 2V10C15.167 11.0125 14.3455 11.833 13.333 11.833H2.66699C1.65447 11.833 0.833008 11.0125 0.833008 10V2C0.833008 0.987478 1.65447 0.166992 2.66699 0.166992H13.333ZM12.4316 3.08105C12.2924 2.84289 11.9864 2.76232 11.748 2.90137L8.41992 4.84277C8.16045 4.99413 7.83955 4.99413 7.58008 4.84277L4.25195 2.90137C4.01357 2.7624 3.70758 2.84287 3.56836 3.08105C3.42922 3.31958 3.50952 3.62648 3.74805 3.76562L7.07617 5.70703C7.64695 6.03998 8.35303 6.03993 8.92383 5.70703L12.252 3.76562C12.4905 3.62648 12.5708 3.31958 12.4316 3.08105Z" fill="currentColor"/>
</svg>
