<svg width="16" height="16" viewBox="0 0 16 16" fill="none" xmlns="http://www.w3.org/2000/svg">
<path d="M7.8865 6L9.99984 8.10667V8C9.99984 7.46957 9.78912 6.96086 9.41405 6.58579C9.03898 6.21071 8.53027 6 7.99984 6H7.8865ZM5.01984 6.53333L6.05317 7.56667C6.01984 7.70667 5.99984 7.84667 5.99984 8C5.99984 8.53043 6.21055 9.03914 6.58562 9.41421C6.9607 9.78929 7.4694 10 7.99984 10C8.1465 10 8.29317 9.98 8.43317 9.94667L9.4665 10.98C9.01984 11.2 8.5265 11.3333 7.99984 11.3333C7.11578 11.3333 6.26794 10.9821 5.64281 10.357C5.01769 9.7319 4.6665 8.88406 4.6665 8C4.6665 7.47333 4.79984 6.98 5.01984 6.53333ZM1.33317 2.84667L2.85317 4.36667L3.15317 4.66667C2.05317 5.53333 1.1865 6.66667 0.666504 8C1.81984 10.9267 4.6665 13 7.99984 13C9.03317 13 10.0198 12.8 10.9198 12.44L11.2065 12.72L13.1532 14.6667L13.9998 13.82L2.17984 2M7.99984 4.66667C8.88389 4.66667 9.73174 5.01786 10.3569 5.64298C10.982 6.2681 11.3332 7.11595 11.3332 8C11.3332 8.42667 11.2465 8.84 11.0932 9.21333L13.0465 11.1667C14.0465 10.3333 14.8465 9.24 15.3332 8C14.1798 5.07333 11.3332 3 7.99984 3C7.0665 3 6.17317 3.16667 5.33317 3.46667L6.77984 4.9C7.15984 4.75333 7.5665 4.66667 7.99984 4.66667Z" fill="#7E818C"/>
</svg>
