<svg width="16" height="16" viewBox="0 0 16 16" fill="none" xmlns="http://www.w3.org/2000/svg">
<path fill-rule="evenodd" clip-rule="evenodd" d="M1.5 2.66667C1.5 2.02233 2.02234 1.5 2.66667 1.5H13.3333C13.9777 1.5 14.5 2.02233 14.5 2.66667V4.35442C14.5 4.70066 14.3462 5.02902 14.0802 5.25067L10.5166 8.22037C10.485 8.24672 10.4642 8.28385 10.4583 8.32459L9.87068 12.3954C9.81609 12.7735 9.57982 13.101 9.23818 13.272L7.74583 14.019C7.01978 14.3824 6.15376 13.9115 6.06409 13.1045L5.53269 8.32194C5.52794 8.27915 5.50682 8.23987 5.47374 8.21231L1.91978 5.25067C1.65379 5.02902 1.5 4.70066 1.5 4.35442V2.66667Z" fill="currentColor"/>
</svg>
