<svg width="24" height="24" viewBox="0 0 24 24" fill="none" xmlns="http://www.w3.org/2000/svg">
<path d="M10.1592 1.34375C10.617 1.19686 11.0638 1.26167 11.3604 1.31836C12.0996 1.4597 12.7626 1.64463 13.416 1.82617C13.7214 1.91101 14.0248 1.99512 14.333 2.07422C15.0569 2.25997 15.7038 2.71707 16.0957 3.38477C16.8588 4.68472 17.5416 5.82835 18.1963 6.9248C19.3178 8.80314 20.357 10.5437 21.5752 12.6943C22.3222 14.013 23.079 15.7672 22.5996 17.5215C22.3791 18.3282 21.8475 18.9222 21.2012 19.3203C17.2029 21.7828 13.46 22.4011 10.375 21.2852C8.9757 22.4732 7.22929 22.8501 5.65332 22.7334C3.96237 22.6082 2.33099 21.9033 1.43945 20.8457C1.32575 20.7108 1.263 20.5397 1.2627 20.3633L1.25 12.9473C1.24965 12.743 1.33232 12.547 1.47949 12.4053C2.80135 11.1333 4.61828 10.5753 6.34375 10.5557C7.6405 10.5409 8.94963 10.8299 10.0244 11.4082C9.15626 12.2669 8.53097 13.4391 8.31641 14.918C8.25716 15.3277 8.54138 15.7081 8.95117 15.7676C9.36101 15.8269 9.74132 15.5427 9.80078 15.1328C10.0166 13.6454 10.7663 12.5654 11.7842 11.9102C12.5315 11.8432 13.2851 11.9209 14.0078 12.124C13.9835 12.0019 13.9617 11.8792 13.9424 11.7559C13.8852 11.3905 13.844 11.0012 13.8018 10.6064L13.792 10.5186C13.7513 10.1395 13.708 9.74533 13.6475 9.32715L12.2012 7.2959C11.1914 7.47858 10.3921 7.56296 9.70215 7.50391C8.86208 7.43196 8.2215 7.15211 7.57324 6.68555C7.56425 6.67908 7.55557 6.6719 7.54688 6.66504C6.99506 6.22941 6.77114 5.63151 6.85742 5.01367C6.93546 4.45541 7.25372 3.95613 7.61426 3.56641C7.76056 3.40548 7.90793 3.23864 8.05273 3.07422C8.31231 2.77946 8.56554 2.49243 8.79688 2.25977C9.17359 1.88089 9.60801 1.52059 10.1592 1.34375Z" fill="currentColor"/>
</svg>
