<svg width="16" height="16" viewBox="0 0 16 16" fill="none" xmlns="http://www.w3.org/2000/svg">
<path d="M8 0.666992C10.0249 0.666992 11.6668 2.30811 11.667 4.33301V5.5H12C13.0124 5.50007 13.8328 6.32068 13.833 7.33301V13.333C13.833 14.3455 13.0125 15.1669 12 15.167H4.00098C2.98868 15.167 2.16735 14.3462 2.16699 13.334V7.33398C2.1669 6.3214 2.98741 5.5 4 5.5H4.33301V4.33301C4.33318 2.30811 5.97506 0.666992 8 0.666992ZM8 9C7.63181 9 7.33301 9.2988 7.33301 9.66699V11C7.33301 11.3682 7.63181 11.667 8 11.667C8.36819 11.667 8.66699 11.3682 8.66699 11V9.66699C8.66699 9.2988 8.36819 9 8 9ZM8 2C6.71144 2 5.66717 3.04449 5.66699 4.33301V5.5H10.333V4.33301C10.3328 3.04449 9.28856 2 8 2Z" fill="currentColor"/>
</svg>
