<svg width="16" height="16" viewBox="0 0 16 16" fill="none" xmlns="http://www.w3.org/2000/svg">
<path fill-rule="evenodd" clip-rule="evenodd" d="M6.40001 2.40676C5.36668 2.97343 4.66002 4.07335 4.66002 5.33335C4.66002 6.00669 4.86001 6.64002 5.20668 7.16669C3.88001 7.10002 2.82669 6.00669 2.82669 4.66669C2.82669 3.32669 3.94669 2.16669 5.32669 2.16669C5.70669 2.16669 6.07335 2.25343 6.40001 2.40676ZM5.52001 8.16669C3.86668 8.66002 2.66668 10.1867 2.66668 12V13.1667H1.33334C1.06001 13.1667 0.833344 12.94 0.833344 12.6667V11.3334C0.833344 9.58669 2.25334 8.16669 4.00001 8.16669H5.52001ZM8.00001 2.83335C6.62001 2.83335 5.50001 3.95335 5.50001 5.33335C5.50001 6.71335 6.62001 7.83335 8.00001 7.83335C9.38001 7.83335 10.5 6.71335 10.5 5.33335C10.5 3.95335 9.38001 2.83335 8.00001 2.83335ZM6.66668 8.83335C4.92001 8.83335 3.50001 10.2534 3.50001 12V13.3334C3.50001 13.6067 3.72668 13.8334 4.00001 13.8334H12C12.2733 13.8334 12.5 13.6067 12.5 13.3334V12C12.5 10.2534 11.08 8.83335 9.33334 8.83335H6.66668ZM13.1667 4.66669C13.1667 6.00669 12.1134 7.10002 10.7867 7.16669C11.1334 6.64002 11.3333 6.00669 11.3333 5.33335C11.3333 4.07335 10.6334 2.97343 9.59335 2.40676C9.92002 2.25343 10.28 2.16669 10.6667 2.16669C12.0467 2.16669 13.1667 3.28669 13.1667 4.66669ZM14.6667 13.1667H13.3333V12C13.3333 10.1867 12.1333 8.66002 10.48 8.16669H12C13.7467 8.16669 15.1667 9.58669 15.1667 11.3334V12.6667C15.1667 12.94 14.94 13.1667 14.6667 13.1667Z" fill="currentColor"/>
</svg>
