<svg width="24" height="24" viewBox="0 0 24 24" fill="none" xmlns="http://www.w3.org/2000/svg">
<path d="M6.67188 14.6924C6.94369 14.5725 7.26103 14.624 7.48047 14.8242L9.79395 16.9375C9.91797 17.0507 10.0642 17.1376 10.2227 17.1934L12.9912 18.167C13.0886 18.2013 13.2613 18.2738 13.4092 18.4062C13.4782 18.468 13.6285 18.6188 13.6826 18.8643C13.7513 19.1766 13.6274 19.4507 13.4561 19.6211L10.5508 22.5068C10.1975 22.8574 9.62036 22.8307 9.30078 22.4492L6.86719 19.5449C6.45244 19.0499 6.22461 18.4241 6.22461 17.7783V15.3779C6.22477 15.0811 6.4003 14.8123 6.67188 14.6924ZM16.4766 1.84668C17.4856 1.41488 18.7604 1.59523 19.5039 2.55859C20.8343 4.28289 21.5381 6.30643 21.748 8.9248C21.7496 8.9446 21.75 8.96451 21.75 8.98438C21.75 12.3767 21.0077 14.5334 19.4834 16.4521C18.7273 17.4038 17.4479 17.6005 16.4219 17.1572L8.25 13.626V5.36621L16.4766 1.84668ZM6.75 13.2383H5C3.48122 13.2383 2.25 12.0071 2.25 10.4883V8.5C2.2502 6.98139 3.48134 5.75 5 5.75H6.75V13.2383Z" fill="currentColor"/>
</svg>
