<svg width="50" height="50" viewBox="0 0 50 50" fill="none" xmlns="http://www.w3.org/2000/svg">
<g clip-path="url(#clip0_3248_16405)">
<path d="M11.0642 7.8086C9.22433 7.83008 7.74193 9.32815 7.74193 11.1719V17.1174C7.74193 17.7697 8.27123 18.299 8.92358 18.299V18.2971H8.92554C9.57594 18.2971 10.1033 17.7697 10.1033 17.1174V11.1719C10.1033 10.6191 10.5506 10.1719 11.1013 10.1699H17.0523C17.7047 10.1699 18.232 9.64064 18.232 8.98829C18.232 8.33789 17.7047 7.80859 17.0523 7.80859L11.0642 7.8086ZM38.9332 7.8086H32.9447C32.2923 7.8086 31.765 8.3379 31.765 8.9883C31.765 9.64065 32.2923 10.1699 32.9447 10.1699H38.8957C39.4465 10.1719 39.8937 10.6192 39.8937 11.1719V17.1174C39.8937 17.7697 40.4211 18.2971 41.0734 18.2971V18.2991C41.7258 18.2991 42.2551 17.7698 42.2551 17.1174V11.1719C42.2551 9.32815 40.773 7.8301 38.9332 7.8086ZM13.4627 12.5469C13.1502 12.5469 12.8494 12.6719 12.6287 12.8926C12.408 13.1153 12.283 13.4141 12.283 13.7286V21.2366C12.283 21.551 12.408 21.8499 12.6287 22.0725C12.8494 22.2932 13.1502 22.4182 13.4627 22.4182H13.4646L20.9726 22.4163C21.625 22.4163 22.1523 21.8889 22.1523 21.2366V13.7286C22.1523 13.0762 21.625 12.5489 20.9726 12.5489L13.4646 12.5469L13.4627 12.5469ZM28.8437 12.5469C28.5312 12.5469 28.2304 12.6719 28.0097 12.8926C27.787 13.1153 27.662 13.4141 27.662 13.7286V21.2366C27.662 21.551 27.787 21.8499 28.0097 22.0725C28.2304 22.2932 28.5312 22.4182 28.8437 22.4182L36.3517 22.4163C37.004 22.4163 37.5333 21.8889 37.5333 21.2366V13.7286C37.5333 13.0762 37.004 12.5489 36.3517 12.5489L28.8437 12.5469ZM42.7342 23.8164H7.26368V23.8184H7.26173C6.61133 23.8184 6.08203 24.3457 6.08203 24.9981C6.08203 25.6504 6.61133 26.1778 7.26368 26.1778H42.7342C43.3865 26.1778 43.9158 25.6485 43.9158 24.9961C43.9158 24.3457 43.3865 23.8164 42.7342 23.8164ZM28.8417 27.873C28.1893 27.873 27.662 28.4023 27.662 29.0547V32.7129C27.662 33.3652 28.1913 33.8946 28.8436 33.8946C29.496 33.8946 30.0233 33.3652 30.0233 32.7129V30.2363L32.4452 30.2344V30.2363C33.0976 30.2344 33.6269 29.7071 33.6269 29.0547C33.6269 28.4023 33.0976 27.875 32.4452 27.875L28.8515 27.873L28.8417 27.873ZM36.3712 28.3847V28.3867H36.3692C35.7169 28.3867 35.1895 28.9141 35.1895 29.5664V31.5703H33.2774C32.6251 31.5703 32.0977 32.0977 32.0977 32.75C32.0977 33.4024 32.6251 33.9317 33.2774 33.9317H36.3712C37.0235 33.9317 37.5509 33.4024 37.5509 32.752V29.5664C37.5509 28.9141 37.0235 28.3847 36.3712 28.3847ZM13.4632 27.873C13.1507 27.873 12.8499 27.998 12.6292 28.2188C12.4085 28.4414 12.2835 28.7422 12.2835 29.0547V36.5627C12.2835 36.8772 12.4085 37.176 12.6292 37.3987C12.8499 37.6194 13.1507 37.7444 13.4632 37.7444H13.4651L20.9731 37.7424C21.6255 37.7424 22.1528 37.2151 22.1528 36.5627V29.0547C22.1528 28.4024 21.6255 27.875 20.9731 27.875L13.4651 27.8731L13.4632 27.873ZM28.8442 35.383H28.8422C28.1918 35.383 27.6625 35.9104 27.6625 36.5627C27.6625 37.2151 28.1918 37.7425 28.8442 37.7425L36.3717 37.7444C37.024 37.7444 37.5514 37.2151 37.5514 36.5628C37.5514 35.9124 37.024 35.3831 36.3717 35.3831L28.8442 35.383ZM41.0747 31.6955V31.6975C40.4223 31.6975 39.895 32.2249 39.895 32.8772V38.8247C39.895 39.3755 39.4477 39.8228 38.8969 39.8247H32.9459C32.2936 39.8247 31.7662 40.354 31.7662 41.0064C31.7662 41.6587 32.2936 42.1861 32.9459 42.1861H38.9344C40.7743 42.1646 42.2567 40.6685 42.2567 38.8247V32.8772C42.2567 32.2249 41.727 31.6955 41.0747 31.6955ZM8.92419 31.6955C8.27183 31.6955 7.74253 32.2249 7.74253 32.8772V38.8247C7.74253 40.6684 9.22493 42.1646 11.0648 42.1861H17.0533C17.7056 42.1861 18.233 41.6587 18.233 41.0063C18.233 40.354 17.7056 39.8247 17.0533 39.8247H11.1023C10.5515 39.8227 10.1042 39.3755 10.1042 38.8247V32.8772C10.1042 32.2249 9.57688 31.6975 8.92648 31.6975H8.92453L8.92419 31.6955Z" fill="white"/>
</g>
<defs>
<clipPath id="clip0_3248_16405">
<rect width="50" height="50" fill="white"/>
</clipPath>
</defs>
</svg>
