<svg width="16" height="16" viewBox="0 0 16 16" fill="none" xmlns="http://www.w3.org/2000/svg">
<path d="M12.1016 4.17615C12.7261 4.30682 13.1908 4.53343 13.5635 4.88806C14.4986 5.78002 14.499 7.05194 14.499 9.5863C14.499 12.1207 14.4989 13.3926 13.5645 14.2845C12.6398 15.1665 11.311 15.1664 8.66504 15.1664H7.33301C4.68789 15.1664 3.35987 15.1665 2.43457 14.2845C1.49995 13.3925 1.5 12.1203 1.5 9.5863C1.5 7.05272 1.50021 5.78099 2.43457 4.88904C2.8079 4.53437 3.27279 4.30779 3.89746 4.17712C4.16808 4.12121 4.4326 4.2942 4.48926 4.56482C4.54577 4.83474 4.37215 5.09997 4.10156 5.15662C3.66114 5.24862 3.35928 5.39039 3.12402 5.61365C2.49959 6.20968 2.49902 7.33806 2.49902 9.5863C2.49902 11.835 2.49967 12.9649 3.125 13.5609C3.76042 14.1666 4.95478 14.1664 7.33301 14.1664H8.66602C11.0445 14.1664 12.2393 14.1667 12.874 13.5609C13.4994 12.9649 13.499 11.835 13.499 9.5863C13.499 7.33788 13.4993 6.20866 12.874 5.61267C12.6394 5.38934 12.3378 5.24831 11.8965 5.15564C11.6266 5.09887 11.4538 4.83443 11.5098 4.56384C11.5665 4.29392 11.8309 4.12016 12.1016 4.17615ZM8.04785 0.834351C8.25304 0.844438 8.45716 0.927187 8.62305 1.06775C9.24971 1.60042 10.3397 2.91019 10.3857 2.96619C10.5615 3.17885 10.5322 3.49435 10.3203 3.67029C10.1077 3.84689 9.79223 3.81739 9.61621 3.60486C9.60821 3.59553 9.04253 2.91372 8.51855 2.35974L8.50098 9.33435C8.50012 9.61013 8.27611 9.8323 8.00098 9.8324L7.99902 9.83337C7.72316 9.83271 7.49955 9.60822 7.5 9.3324L7.51758 2.32361C6.98776 2.88059 6.40028 3.58583 6.38477 3.60486C6.2081 3.81753 5.89333 3.84695 5.68066 3.67029C5.46824 3.49425 5.43864 3.17876 5.61523 2.96619C5.66308 2.90863 6.75152 1.60091 7.37695 1.06873C7.37895 1.06674 7.3818 1.06419 7.38379 1.06287C7.57768 0.904441 7.80428 0.825705 8.03809 0.834351H8.04785Z" fill="#161616"/>
</svg>
