<svg width="24" height="24" viewBox="0 0 24 24" fill="none" xmlns="http://www.w3.org/2000/svg">
<path d="M10.368 1.91997C9.36001 2.54397 8.64001 3.74397 8.64001 4.79997C8.64001 6.43197 10.296 8.15997 11.88 8.15997C12.816 8.15997 14.136 7.48797 14.712 6.69597C16.728 3.93597 13.296 0.143972 10.368 1.91997Z" fill="currentColor"/>
<path d="M6.93602 10.56C5.88002 11.112 2.68802 15.864 2.47202 17.16C2.35202 17.976 2.42402 18.12 4.27202 19.968C6.21602 21.912 6.33602 21.96 7.51202 21.48C7.84802 21.336 7.92002 21.432 7.92002 22.176V23.04H12H16.08V22.2C16.08 21.384 16.368 21.096 16.68 21.6C17.088 22.248 17.976 21.768 19.8 19.92C21.552 18.12 21.648 17.952 21.528 17.16C21.456 16.704 20.616 15.12 19.656 13.656C18.312 11.616 17.712 10.896 16.992 10.536C15.264 9.64798 14.952 9.86398 13.776 12.648C12.888 14.784 12.792 15.144 13.128 15.336C13.464 15.504 13.464 15.648 13.08 16.704C12.84 17.352 12.552 17.976 12.456 18.096C12.312 18.264 11.04 17.952 10.608 17.616C10.56 17.592 10.704 17.04 10.92 16.392L11.328 15.24L10.248 12.72C9.26402 10.392 9.14402 10.2 8.49602 10.152C8.11202 10.104 7.41602 10.296 6.93602 10.56ZM7.53602 18L7.70402 19.8L6.48002 18.6C5.83202 17.952 5.28002 17.328 5.28002 17.232C5.28002 17.136 5.68802 16.488 6.16802 15.792L7.05602 14.544L7.22402 15.384C7.32002 15.84 7.46402 17.016 7.53602 18ZM17.856 15.84C18.336 16.512 18.72 17.136 18.72 17.232C18.72 17.328 18.168 17.952 17.496 18.6L16.272 19.8L16.44 18.36C16.728 15.624 16.848 14.64 16.92 14.64C16.968 14.64 17.376 15.192 17.856 15.84Z" fill="currentColor"/>
<path d="M10.128 10.272C11.184 12.888 11.88 14.4 12 14.4C12.12 14.4 12.816 12.888 13.872 10.272C13.92 10.176 13.08 10.08 12 10.08C10.92 10.08 10.08 10.176 10.128 10.272Z" fill="currentColor"/>
</svg>
