<svg width="15" height="15" viewBox="0 0 15 15" fill="none" xmlns="http://www.w3.org/2000/svg">
<path d="M7.16699 0C11.125 0 14.334 3.20895 14.334 7.16699C14.334 11.125 11.125 14.334 7.16699 14.334C3.20895 14.334 0 11.125 0 7.16699C1.0469e-07 3.20895 3.20895 1.04687e-07 7.16699 0ZM9.63867 4.69531C9.37832 4.43499 8.95565 4.43497 8.69531 4.69531L7.16699 6.22461L5.63867 4.69531C5.37833 4.43497 4.95567 4.43499 4.69531 4.69531C4.43497 4.95565 4.43499 5.37832 4.69531 5.63867L6.22461 7.16699L4.69629 8.69531C4.43595 8.95568 4.43593 9.37834 4.69629 9.63867C4.95659 9.89868 5.3784 9.89871 5.63867 9.63867L7.16699 8.11035L8.69531 9.63867C8.95558 9.89871 9.37739 9.89868 9.6377 9.63867C9.89806 9.37834 9.89803 8.95568 9.6377 8.69531L8.10938 7.16699L9.63867 5.63867C9.899 5.37832 9.89901 4.95565 9.63867 4.69531Z" fill="currentColor"/>
</svg>
