<svg width="24" height="24" viewBox="0 0 24 24" fill="none" xmlns="http://www.w3.org/2000/svg">
<path d="M12 7.25C13.8481 7.25 15.5268 7.92254 16.7549 9.0127C16.899 9.14068 17.0366 9.27493 17.168 9.41406C17.6553 9.93018 17.8392 10.5536 17.9375 11.0332C18.0937 11.7949 18.4106 12.6814 18.915 13.3535C19.4072 14.0093 20.0053 14.3799 20.7754 14.3799C21.3137 14.3801 21.75 14.7794 21.75 15.2715C21.7499 15.7635 21.3136 16.1619 20.7754 16.1621C19.1608 16.1621 18.0311 15.3276 17.3066 14.3623C16.6577 13.4976 16.2775 12.4656 16.0752 11.6074C15.6632 12.5259 15.3906 13.3978 15.4805 14.2344C15.5827 15.1855 16.2171 15.9027 17.2354 16.5703C17.7397 16.901 18.6079 17.3499 19.1953 17.6465C19.6765 17.8879 20.1704 18.136 20.6113 18.3926C21.6157 18.9771 21.9049 20.0855 21.6748 20.9951C21.4409 21.9195 20.6441 22.75 19.4316 22.75C17.4098 22.75 15.5078 22.5939 13.5684 21.7012L11.9102 20.707L10.29 21.6992C8.38583 22.5943 6.51775 22.75 4.53613 22.75C3.32985 22.75 2.55025 21.9078 2.32324 20.9922C2.10007 20.0915 2.3771 18.9837 3.36719 18.3955C3.79961 18.1386 4.58053 17.7384 5.05176 17.4971C5.62675 17.2006 6.17881 16.9044 6.67188 16.5742C7.66482 15.9094 8.28902 15.1923 8.38965 14.2354C8.47436 13.4286 8.2494 12.6082 7.89063 11.75C7.68073 12.5782 7.30676 13.5449 6.69336 14.3623C5.96891 15.3276 4.83919 16.1621 3.22461 16.1621C2.68637 16.1619 2.25009 15.7635 2.25 15.2715C2.25 14.7794 2.68631 14.3801 3.22461 14.3799C3.99466 14.3799 4.59281 14.0093 5.08496 13.3535C5.58936 12.6814 5.90634 11.7949 6.0625 11.0332C6.16084 10.5536 6.34466 9.93018 6.83203 9.41406C6.9463 9.29306 7.06549 9.17608 7.18945 9.06348C8.42224 7.94377 10.1235 7.25 12 7.25ZM12 1.25C13.5188 1.25 14.75 2.48122 14.75 4C14.75 5.51878 13.5188 6.75 12 6.75C10.4812 6.75 9.25 5.51878 9.25 4C9.25 2.48122 10.4812 1.25 12 1.25Z" fill="currentColor"/>
</svg>
