<svg width="57" height="57" viewBox="0 0 57 57" fill="none" xmlns="http://www.w3.org/2000/svg">
<g filter="url(#filter0_d_3540_9701)">
<rect x="5.5" y="2" width="46" height="46" rx="12" fill="#16B157"/>
</g>
<path d="M33.459 27.3809C33.897 26.5398 35.1091 26.5396 35.5469 27.3809L36.3994 29.0195L38.2598 29.3105C39.1897 29.4558 39.6038 30.6032 38.9033 31.291L37.5811 32.5898L37.8721 34.3994C38.0281 35.3718 37.0082 36.0363 36.1836 35.625L34.5029 34.7861L32.8213 35.625C31.9967 36.0362 30.9776 35.3718 31.1338 34.3994L31.4248 32.5898L30.1016 31.291C29.4013 30.6032 29.8153 29.456 30.7451 29.3105L32.6055 29.0195L33.459 27.3809ZM27.5 25.25C29.2177 25.25 30.8051 25.8091 32.0898 26.7549L31.6211 27.6553L30.5107 27.8281C28.4296 28.1527 27.4175 30.7614 29.0469 32.3613L29.8164 33.1172L29.7148 33.75H18.5C18.0858 33.75 17.75 33.4142 17.75 33C17.75 28.7198 21.2198 25.25 25.5 25.25H27.5ZM26.5 14.25C29.1234 14.25 31.25 16.3766 31.25 19C31.25 21.6234 29.1234 23.75 26.5 23.75C23.8766 23.75 21.75 21.6234 21.75 19C21.75 16.3766 23.8766 14.25 26.5 14.25Z" fill="white"/>
<defs>
<filter id="filter0_d_3540_9701" x="0" y="-2.38419e-07" width="57" height="57" filterUnits="userSpaceOnUse" color-interpolation-filters="sRGB">
<feFlood flood-opacity="0" result="BackgroundImageFix"/>
<feColorMatrix in="SourceAlpha" type="matrix" values="0 0 0 0 0 0 0 0 0 0 0 0 0 0 0 0 0 0 127 0" result="hardAlpha"/>
<feOffset dy="3.5"/>
<feGaussianBlur stdDeviation="2.75"/>
<feColorMatrix type="matrix" values="0 0 0 0 0 0 0 0 0 0 0 0 0 0 0 0 0 0 0.02 0"/>
<feBlend mode="normal" in2="BackgroundImageFix" result="effect1_dropShadow_3540_9701"/>
<feBlend mode="normal" in="SourceGraphic" in2="effect1_dropShadow_3540_9701" result="shape"/>
</filter>
</defs>
</svg>
