<svg width="57" height="57" viewBox="0 0 57 57" fill="none" xmlns="http://www.w3.org/2000/svg">
<g filter="url(#filter0_d_3540_9909)">
<rect x="5.5" y="2" width="46" height="46" rx="12" fill="#FF0000"/>
</g>
<path d="M32.5 14C33.0523 14 33.5 14.4477 33.5 15V15.75H34C35.5188 15.75 36.75 16.9812 36.75 18.5V25.834C36.5649 25.941 36.3908 26.0741 36.2324 26.2324L35 27.4648L33.7676 26.2324C32.7913 25.2561 31.2087 25.2561 30.2324 26.2324C29.2561 27.2087 29.2561 28.7913 30.2324 29.7676L31.4648 31L30.2324 32.2324C29.262 33.2028 29.2562 34.7723 30.2148 35.75H21C19.4812 35.75 18.25 34.5188 18.25 33L18.25 18.5C18.25 16.9812 19.4812 15.75 21 15.75H21.5V15C21.5 14.4477 21.9477 14 22.5 14C23.0523 14 23.5 14.4477 23.5 15V15.75H26.5V15C26.5 14.4477 26.9477 14 27.5 14C28.0523 14 28.5 14.4477 28.5 15V15.75L31.5 15.75V15C31.5 14.4477 31.9477 14 32.5 14ZM37.293 27.293C37.6835 26.9024 38.3165 26.9024 38.707 27.293C39.0976 27.6835 39.0976 28.3165 38.707 28.707L36.4141 31L38.707 33.293C39.0976 33.6835 39.0976 34.3165 38.707 34.707C38.3165 35.0976 37.6835 35.0976 37.293 34.707L35 32.4141L32.707 34.707C32.3165 35.0976 31.6835 35.0976 31.293 34.707C30.9024 34.3165 30.9024 33.6835 31.293 33.293L33.5859 31L31.293 28.707C30.9024 28.3165 30.9024 27.6835 31.293 27.293C31.6835 26.9024 32.3165 26.9024 32.707 27.293L35 29.5859L37.293 27.293ZM24 27.25C23.5858 27.25 23.25 27.5858 23.25 28C23.25 28.4142 23.5858 28.75 24 28.75H27C27.4142 28.75 27.75 28.4142 27.75 28C27.75 27.5858 27.4142 27.25 27 27.25H24ZM24 22.25C23.5858 22.25 23.25 22.5858 23.25 23C23.25 23.4142 23.5858 23.75 24 23.75L31 23.75C31.4142 23.75 31.75 23.4142 31.75 23C31.75 22.5858 31.4142 22.25 31 22.25L24 22.25Z" fill="white"/>
<defs>
<filter id="filter0_d_3540_9909" x="0" y="-2.38419e-07" width="57" height="57" filterUnits="userSpaceOnUse" color-interpolation-filters="sRGB">
<feFlood flood-opacity="0" result="BackgroundImageFix"/>
<feColorMatrix in="SourceAlpha" type="matrix" values="0 0 0 0 0 0 0 0 0 0 0 0 0 0 0 0 0 0 127 0" result="hardAlpha"/>
<feOffset dy="3.5"/>
<feGaussianBlur stdDeviation="2.75"/>
<feColorMatrix type="matrix" values="0 0 0 0 0 0 0 0 0 0 0 0 0 0 0 0 0 0 0.02 0"/>
<feBlend mode="normal" in2="BackgroundImageFix" result="effect1_dropShadow_3540_9909"/>
<feBlend mode="normal" in="SourceGraphic" in2="effect1_dropShadow_3540_9909" result="shape"/>
</filter>
</defs>
</svg>
