<svg width="57" height="57" viewBox="0 0 57 57" fill="none" xmlns="http://www.w3.org/2000/svg">
<g filter="url(#filter0_d_2874_16209)">
<rect x="5.5" y="2" width="46" height="46" rx="12" fill="#EBA522"/>
</g>
<path fill-rule="evenodd" clip-rule="evenodd" d="M25.75 16.75C25.75 16.0207 26.0397 15.3212 26.5555 14.8055C27.0712 14.2897 27.7707 14 28.5 14C29.2293 14 29.9288 14.2897 30.4445 14.8055C30.9603 15.3212 31.25 16.0207 31.25 16.75H34.55C35.1335 16.75 35.6931 16.9818 36.1056 17.3944C36.5182 17.8069 36.75 18.3665 36.75 18.95V32.8833C36.75 33.4668 36.5182 34.0264 36.1056 34.439C35.6931 34.8515 35.1335 35.0833 34.55 35.0833H22.45C22.1611 35.0833 21.875 35.0264 21.6081 34.9159C21.3412 34.8053 21.0987 34.6433 20.8944 34.439C20.4818 34.0264 20.25 33.4668 20.25 32.8833V18.95C20.25 18.6611 20.3069 18.375 20.4175 18.1081C20.528 17.8412 20.6901 17.5987 20.8944 17.3944C21.3069 16.9818 21.8665 16.75 22.45 16.75H25.75ZM28.5 15.8333C28.2569 15.8333 28.0237 15.9299 27.8518 16.1018C27.6799 16.2737 27.5833 16.5069 27.5833 16.75C27.5833 16.9931 27.6799 17.2263 27.8518 17.3982C28.0237 17.5701 28.2569 17.6667 28.5 17.6667C28.7431 17.6667 28.9763 17.5701 29.1482 17.3982C29.3201 17.2263 29.4167 16.9931 29.4167 16.75C29.4167 16.5069 29.3201 16.2737 29.1482 16.1018C28.9763 15.9299 28.7431 15.8333 28.5 15.8333ZM32.9128 23.6993C32.9828 23.6013 33.0327 23.4905 33.0598 23.3732C33.087 23.2559 33.0907 23.1344 33.0709 23.0156C33.051 22.8969 33.008 22.7832 32.9443 22.6811C32.8805 22.579 32.7972 22.4904 32.6992 22.4205C32.6013 22.3506 32.4905 22.3006 32.3732 22.2735C32.2559 22.2464 32.1344 22.2426 32.0156 22.2625C31.8969 22.2823 31.7832 22.3253 31.6811 22.3891C31.579 22.4528 31.4904 22.5361 31.4205 22.6341L27.466 28.1707L25.4814 26.1852C25.3085 26.0183 25.077 25.9259 24.8366 25.928C24.5963 25.9301 24.3664 26.0265 24.1964 26.1964C24.0265 26.3664 23.9301 26.5963 23.928 26.8366C23.9259 27.077 24.0183 27.3085 24.1853 27.4814L26.9353 30.2314C27.0294 30.3254 27.1429 30.3978 27.2678 30.4435C27.3927 30.4893 27.5261 30.5073 27.6587 30.4963C27.7912 30.4853 27.9198 30.4456 28.0355 30.3799C28.1512 30.3142 28.2512 30.2241 28.3286 30.1159L32.9128 23.6993Z" fill="white"/>
<defs>
<filter id="filter0_d_2874_16209" x="0" y="-2.38419e-07" width="57" height="57" filterUnits="userSpaceOnUse" color-interpolation-filters="sRGB">
<feFlood flood-opacity="0" result="BackgroundImageFix"/>
<feColorMatrix in="SourceAlpha" type="matrix" values="0 0 0 0 0 0 0 0 0 0 0 0 0 0 0 0 0 0 127 0" result="hardAlpha"/>
<feOffset dy="3.5"/>
<feGaussianBlur stdDeviation="2.75"/>
<feColorMatrix type="matrix" values="0 0 0 0 0 0 0 0 0 0 0 0 0 0 0 0 0 0 0.02 0"/>
<feBlend mode="normal" in2="BackgroundImageFix" result="effect1_dropShadow_2874_16209"/>
<feBlend mode="normal" in="SourceGraphic" in2="effect1_dropShadow_2874_16209" result="shape"/>
</filter>
</defs>
</svg>
