<svg width="57" height="57" viewBox="0 0 57 57" fill="none" xmlns="http://www.w3.org/2000/svg">
<g filter="url(#filter0_d_2873_16103)">
<rect x="5.5" y="2" width="46" height="46" rx="12" fill="#16B157"/>
</g>
<path d="M38.4894 19.1563C38.3904 19.0945 38.2773 19.0589 38.1608 19.0529C38.0443 19.0469 37.9282 19.0706 37.8234 19.1219C34.1341 20.9266 31.4992 20.0809 28.714 19.1889C25.7844 18.2565 22.7594 17.2897 18.5734 19.3333C18.4578 19.3897 18.3603 19.4775 18.2921 19.5866C18.2239 19.6956 18.1876 19.8217 18.1875 19.9503V30.2568C18.1875 30.3734 18.2171 30.4882 18.2737 30.5902C18.3303 30.6922 18.4118 30.7782 18.5108 30.84C18.6097 30.9018 18.7227 30.9374 18.8392 30.9435C18.9557 30.9495 19.0718 30.9259 19.1766 30.8747C22.8659 29.07 25.5008 29.9156 28.2903 30.8077C29.9437 31.3362 31.6281 31.875 33.5325 31.875C35.0012 31.875 36.603 31.5553 38.4232 30.6667C38.5388 30.6103 38.6363 30.5225 38.7045 30.4134C38.7727 30.3044 38.8089 30.1783 38.8091 30.0497V19.7432C38.8101 19.6263 38.7813 19.511 38.7253 19.4083C38.6694 19.3056 38.5882 19.2188 38.4894 19.1563ZM21.625 27.0625C21.625 27.2448 21.5526 27.4197 21.4236 27.5486C21.2947 27.6776 21.1198 27.75 20.9375 27.75C20.7552 27.75 20.5803 27.6776 20.4514 27.5486C20.3224 27.4197 20.25 27.2448 20.25 27.0625V21.5625C20.25 21.3802 20.3224 21.2053 20.4514 21.0764C20.5803 20.9474 20.7552 20.875 20.9375 20.875C21.1198 20.875 21.2947 20.9474 21.4236 21.0764C21.5526 21.2053 21.625 21.3802 21.625 21.5625V27.0625ZM28.5 27.75C27.9561 27.75 27.4244 27.5887 26.9722 27.2865C26.5199 26.9844 26.1675 26.5549 25.9593 26.0524C25.7512 25.5499 25.6967 24.997 25.8028 24.4635C25.9089 23.9301 26.1709 23.4401 26.5555 23.0555C26.94 22.6709 27.4301 22.409 27.9635 22.3028C28.4969 22.1967 29.0499 22.2512 29.5524 22.4593C30.0549 22.6675 30.4844 23.02 30.7865 23.4722C31.0887 23.9244 31.25 24.4561 31.25 25C31.25 25.7293 30.9603 26.4288 30.4445 26.9445C29.9288 27.4603 29.2293 27.75 28.5 27.75ZM36.75 28.4375C36.75 28.6198 36.6776 28.7947 36.5486 28.9236C36.4197 29.0526 36.2448 29.125 36.0625 29.125C35.8802 29.125 35.7053 29.0526 35.5764 28.9236C35.4474 28.7947 35.375 28.6198 35.375 28.4375V22.9375C35.375 22.7552 35.4474 22.5803 35.5764 22.4514C35.7053 22.3224 35.8802 22.25 36.0625 22.25C36.2448 22.25 36.4197 22.3224 36.5486 22.4514C36.6776 22.5803 36.75 22.7552 36.75 22.9375V28.4375Z" fill="white"/>
<defs>
<filter id="filter0_d_2873_16103" x="0" y="-2.38419e-07" width="57" height="57" filterUnits="userSpaceOnUse" color-interpolation-filters="sRGB">
<feFlood flood-opacity="0" result="BackgroundImageFix"/>
<feColorMatrix in="SourceAlpha" type="matrix" values="0 0 0 0 0 0 0 0 0 0 0 0 0 0 0 0 0 0 127 0" result="hardAlpha"/>
<feOffset dy="3.5"/>
<feGaussianBlur stdDeviation="2.75"/>
<feColorMatrix type="matrix" values="0 0 0 0 0 0 0 0 0 0 0 0 0 0 0 0 0 0 0.02 0"/>
<feBlend mode="normal" in2="BackgroundImageFix" result="effect1_dropShadow_2873_16103"/>
<feBlend mode="normal" in="SourceGraphic" in2="effect1_dropShadow_2873_16103" result="shape"/>
</filter>
</defs>
</svg>
