<svg width="57" height="57" viewBox="0 0 57 57" fill="none" xmlns="http://www.w3.org/2000/svg">
<g filter="url(#filter0_d_3560_2522)">
<rect x="5.5" y="2" width="46" height="46" rx="12" fill="#2084DB"/>
</g>
<path d="M23.6875 15.387H27.6406C27.6831 15.387 27.7239 15.4038 27.7539 15.4338C27.7839 15.4639 27.8008 15.5046 27.8008 15.5471V21.5627C27.8008 22.1129 28.0192 22.6406 28.4082 23.0295C28.7972 23.4185 29.3249 23.637 29.875 23.637H35.8906C35.9331 23.637 35.9739 23.6538 36.0039 23.6838C36.0339 23.7139 36.0508 23.7546 36.0508 23.7971V31.8752C36.0508 32.6015 35.7625 33.2982 35.249 33.8118C34.7355 34.3253 34.0387 34.6135 33.3125 34.6135H23.6875C22.9613 34.6135 22.2645 34.3253 21.751 33.8118C21.2375 33.2982 20.9492 32.6015 20.9492 31.8752V18.1252C20.9492 17.399 21.2374 16.7022 21.751 16.1887C22.2645 15.6752 22.9613 15.387 23.6875 15.387ZM25.0625 29.1135C24.8771 29.1135 24.6995 29.1875 24.5684 29.3186C24.4372 29.4497 24.3633 29.6273 24.3633 29.8127C24.3633 29.9982 24.4372 30.1758 24.5684 30.3069C24.6995 30.438 24.8771 30.512 25.0625 30.512H31.9375C32.1229 30.512 32.3005 30.438 32.4316 30.3069C32.5628 30.1758 32.6367 29.9982 32.6367 29.8127C32.6367 29.6273 32.5628 29.4497 32.4316 29.3186C32.3005 29.1875 32.1229 29.1135 31.9375 29.1135H25.0625ZM25.0625 25.676C24.8771 25.676 24.6995 25.75 24.5684 25.8811C24.4372 26.0122 24.3633 26.1898 24.3633 26.3752C24.3633 26.5607 24.4372 26.7383 24.5684 26.8694C24.6995 27.0005 24.8771 27.0745 25.0625 27.0745H31.9375C32.1229 27.0745 32.3005 27.0005 32.4316 26.8694C32.5628 26.7383 32.6367 26.5607 32.6367 26.3752C32.6367 26.1898 32.5628 26.0122 32.4316 25.8811C32.3005 25.75 32.1229 25.676 31.9375 25.676H25.0625Z" fill="white" stroke="#6A0EAD" stroke-width="0.0234375"/>
<path d="M29.2881 15.9132C29.3024 15.9161 29.3158 15.9234 29.3262 15.9337L35.5049 22.1134C35.5152 22.1238 35.5226 22.1372 35.5254 22.1515C35.5281 22.1655 35.5269 22.1802 35.5215 22.1935C35.516 22.2069 35.5061 22.2185 35.4941 22.2267C35.4821 22.2348 35.4676 22.2392 35.4531 22.2394H29.875C29.6959 22.2394 29.5242 22.1686 29.3975 22.0421C29.2707 21.9154 29.1992 21.7428 29.1992 21.5636V15.9865C29.1993 15.9719 29.2038 15.9575 29.2119 15.9454C29.2201 15.9333 29.2316 15.9237 29.2451 15.9181C29.2586 15.9125 29.2737 15.9104 29.2881 15.9132Z" fill="white" stroke="#6A0EAD" stroke-width="0.0234375"/>
<defs>
<filter id="filter0_d_3560_2522" x="0" y="-2.38419e-07" width="57" height="57" filterUnits="userSpaceOnUse" color-interpolation-filters="sRGB">
<feFlood flood-opacity="0" result="BackgroundImageFix"/>
<feColorMatrix in="SourceAlpha" type="matrix" values="0 0 0 0 0 0 0 0 0 0 0 0 0 0 0 0 0 0 127 0" result="hardAlpha"/>
<feOffset dy="3.5"/>
<feGaussianBlur stdDeviation="2.75"/>
<feColorMatrix type="matrix" values="0 0 0 0 0 0 0 0 0 0 0 0 0 0 0 0 0 0 0.02 0"/>
<feBlend mode="normal" in2="BackgroundImageFix" result="effect1_dropShadow_3560_2522"/>
<feBlend mode="normal" in="SourceGraphic" in2="effect1_dropShadow_3560_2522" result="shape"/>
</filter>
</defs>
</svg>
