<svg width="57" height="57" viewBox="0 0 57 57" fill="none" xmlns="http://www.w3.org/2000/svg">
<g filter="url(#filter0_d_3540_9448)">
<rect x="5.5" y="2" width="46" height="46" rx="12" fill="#FF0000"/>
</g>
<path d="M37.0186 26.1865C37.3765 25.8285 37.9565 25.8285 38.3145 26.1865C38.6724 26.5445 38.6724 27.1244 38.3145 27.4824L36.2129 29.584L38.3145 31.6865C38.6724 32.0445 38.6724 32.6244 38.3145 32.9824C37.9565 33.3402 37.3765 33.3403 37.0186 32.9824L34.917 30.8809L32.8145 32.9824C32.4565 33.3402 31.8765 33.3403 31.5186 32.9824C31.1606 32.6245 31.1607 32.0445 31.5186 31.6865L33.6201 29.584L31.5186 27.4824C31.1606 27.1245 31.1607 26.5445 31.5186 26.1865C31.8765 25.8285 32.4565 25.8285 32.8145 26.1865L34.917 28.2881L37.0186 26.1865ZM38.3545 24.6475C37.5663 24.4004 36.6704 24.5894 36.0459 25.2139L34.917 26.3438L33.7871 25.2139C32.8922 24.3189 31.4409 24.3189 30.5459 25.2139C29.6511 26.1088 29.651 27.5602 30.5459 28.4551L31.6758 29.584L30.5459 30.7139C29.9216 31.3383 29.7335 32.2334 29.9805 33.0215H21.167C19.7748 33.0215 18.6455 31.8932 18.6455 30.501V22.9385H38.3545V24.6475ZM35.833 16.9805C37.2252 16.9805 38.3545 18.1088 38.3545 19.501V21.5635H18.6455V19.501C18.6455 18.1088 19.7748 16.9805 21.167 16.9805H35.833Z" fill="white"/>
<defs>
<filter id="filter0_d_3540_9448" x="0" y="-2.38419e-07" width="57" height="57" filterUnits="userSpaceOnUse" color-interpolation-filters="sRGB">
<feFlood flood-opacity="0" result="BackgroundImageFix"/>
<feColorMatrix in="SourceAlpha" type="matrix" values="0 0 0 0 0 0 0 0 0 0 0 0 0 0 0 0 0 0 127 0" result="hardAlpha"/>
<feOffset dy="3.5"/>
<feGaussianBlur stdDeviation="2.75"/>
<feColorMatrix type="matrix" values="0 0 0 0 0 0 0 0 0 0 0 0 0 0 0 0 0 0 0.02 0"/>
<feBlend mode="normal" in2="BackgroundImageFix" result="effect1_dropShadow_3540_9448"/>
<feBlend mode="normal" in="SourceGraphic" in2="effect1_dropShadow_3540_9448" result="shape"/>
</filter>
</defs>
</svg>
