<svg width="16" height="16" viewBox="0 0 16 16" fill="none" xmlns="http://www.w3.org/2000/svg">
<path d="M7.99988 5.50018C7.50543 5.50018 7.02208 5.6468 6.61095 5.92151C6.19983 6.19621 5.8794 6.58666 5.69018 7.04347C5.50096 7.50029 5.45145 8.00296 5.54792 8.48791C5.64438 8.97286 5.88248 9.41832 6.23211 9.76795C6.58174 10.1176 7.0272 10.3557 7.51215 10.4521C7.99711 10.5486 8.49977 10.4991 8.95659 10.3099C9.4134 10.1207 9.80385 9.80023 10.0786 9.38911C10.3533 8.97798 10.4999 8.49464 10.4999 8.00018C10.4979 7.33775 10.2339 6.70301 9.76546 6.2346C9.29705 5.76619 8.66231 5.50216 7.99988 5.50018ZM13.3974 8.00018C13.3961 8.23378 13.379 8.46702 13.3461 8.69831L14.8677 9.88956C14.934 9.94428 14.9786 10.0208 14.9937 10.1054C15.0087 10.19 14.9932 10.2772 14.9499 10.3514L13.5105 12.8364C13.4667 12.91 13.3985 12.9658 13.3176 12.994C13.2368 13.0221 13.1486 13.0209 13.0686 12.9905L11.2796 12.2717C10.907 12.5586 10.4994 12.7967 10.0664 12.9802L9.79894 14.8796C9.78397 14.9646 9.73992 15.0419 9.67431 15.0981C9.60871 15.1543 9.52562 15.1859 9.43925 15.1877H6.56051C6.47571 15.186 6.39397 15.1557 6.32865 15.1016C6.26332 15.0475 6.21826 14.9729 6.20082 14.8899L5.93332 12.9905C5.49922 12.8091 5.09124 12.5707 4.72019 12.2814L2.93113 13.0002C2.85116 13.0306 2.76301 13.0319 2.6822 13.0038C2.60138 12.9757 2.53306 12.9199 2.48926 12.8464L1.04988 10.3617C1.00656 10.2875 0.991034 10.2003 1.00609 10.1157C1.02115 10.0311 1.0658 9.95459 1.13207 9.89987L2.65363 8.70862C2.62118 8.47384 2.60406 8.23719 2.60238 8.00018C2.60368 7.76658 2.6208 7.53334 2.65363 7.30206L1.13207 6.11081C1.0658 6.05609 1.02115 5.97959 1.00609 5.89497C0.991034 5.81036 1.00656 5.72315 1.04988 5.64893L2.48926 3.16393C2.53301 3.09037 2.60131 3.03459 2.68213 3.00641C2.76295 2.97823 2.85112 2.97946 2.93113 3.00987L4.72019 3.72862C5.09273 3.44175 5.50041 3.20367 5.93332 3.02018L6.20082 1.12081C6.21579 1.03573 6.25984 0.958491 6.32545 0.902291C6.39105 0.84609 6.47414 0.814417 6.56051 0.812683H9.43925C9.52405 0.814334 9.60578 0.84468 9.67111 0.898769C9.73644 0.952859 9.7815 1.0275 9.79894 1.1105L10.0664 3.00987C10.5011 3.19111 10.9096 3.42957 11.2811 3.71893L13.0686 3.00018C13.1486 2.96974 13.2367 2.96847 13.3176 2.99659C13.3984 3.02471 13.4667 3.08042 13.5105 3.15393L14.9499 5.63893C14.9932 5.71315 15.0087 5.80036 14.9937 5.88497C14.9786 5.96959 14.934 6.04609 14.8677 6.10081L13.3461 7.29206C13.3786 7.52674 13.3957 7.76328 13.3974 8.00018Z" fill="white"/>
</svg>
